<svg width="70" height="70" viewBox="0 0 70 70" fill="none" xmlns="http://www.w3.org/2000/svg">
<path d="M35 70C54.33 70 70 54.33 70 35C70 15.67 54.33 0 35 0C15.67 0 0 15.67 0 35C0 54.33 15.67 70 35 70Z" fill="white"/>
<path fill-rule="evenodd" clip-rule="evenodd" d="M35.0005 38.8888L14.2598 22.0369C14.2598 20.6045 15.42 19.4443 16.8524 19.4443H53.1487C54.5811 19.4443 55.7412 20.6045 55.7412 22.0369L35.0005 38.8888ZM14.2598 25.9258V47.9629C14.2598 49.3953 15.42 50.5554 16.8524 50.5554H53.1487C54.5811 50.5554 55.7412 49.3953 55.7412 47.9629V25.8856L35.0005 42.7777L14.2598 25.9258Z" fill="#2F6E75"/>
</svg>
