<svg width="70" height="70" viewBox="0 0 70 70" fill="none" xmlns="http://www.w3.org/2000/svg">
<path d="M35 70C54.33 70 70 54.33 70 35C70 15.67 54.33 0 35 0C15.67 0 0 15.67 0 35C0 54.33 15.67 70 35 70Z" fill="#555FFF"/>
<path fill-rule="evenodd" clip-rule="evenodd" d="M49.5063 26.5179H40.4413V24.2716H49.5063V26.5179ZM34.4165 35.7486C35.0026 36.6586 35.2858 37.7584 35.2858 39.0405C35.2858 40.3783 34.9619 41.576 34.293 42.6351C33.8682 43.3387 33.3378 43.9188 32.7021 44.4038C31.9805 44.9568 31.1323 45.3258 30.159 45.5308C29.1782 45.7401 28.1266 45.8426 26.9831 45.8426H16.8516V23.333H27.7139C30.4604 23.3767 32.3933 24.1721 33.5398 25.7314C34.2283 26.6851 34.5747 27.8346 34.5747 29.1664C34.5747 30.5419 34.2268 31.6447 33.5352 32.4854C33.1481 32.9494 32.571 33.3833 31.8208 33.7615C32.9673 34.1787 33.832 34.8341 34.4165 35.7486ZM22.0417 32.2022H26.7964C27.7787 32.2022 28.5712 32.0183 29.1783 31.6477C29.79 31.2786 30.0913 30.6112 30.0913 29.6696C30.0913 28.6165 29.6861 27.925 28.8786 27.5906C28.187 27.3616 27.3027 27.238 26.2255 27.238H22.0417V32.2022ZM30.5508 38.7195C30.5508 37.5489 30.0747 36.7414 29.1211 36.3151C28.5877 36.065 27.8329 35.9354 26.8672 35.9294H22.0417V41.9256H26.7934C27.7682 41.9256 28.526 41.79 29.0713 41.5339C30.0566 41.0396 30.5508 40.098 30.5508 38.7195ZM52.8644 35.0586C52.9759 35.7908 53.0181 36.871 53.0076 38.26H41.279C41.3302 39.8841 41.8937 41.011 42.9543 41.6528C43.5901 42.0656 44.3674 42.2735 45.2789 42.2735C46.2355 42.2735 47.0114 42.0265 47.6155 41.5368C47.9576 41.2611 48.2392 40.9025 48.4923 40.4159H52.7921C52.6655 41.3726 52.1593 42.3504 51.2207 43.3387C49.7759 44.898 47.7572 45.6799 45.1658 45.6799C43.0175 45.6799 41.1177 45.0275 39.4846 43.7002C37.8545 42.385 37.0183 40.2321 37.0183 37.2612C37.0183 34.459 37.7566 32.3091 39.2405 30.8237C40.723 29.3292 42.6363 28.5894 45.0016 28.5894C46.4088 28.5894 47.6742 28.8425 48.7996 29.3427C49.9296 29.8489 50.8516 30.6444 51.5702 31.7276C52.2347 32.6933 52.6641 33.8021 52.8644 35.0586ZM48.631 35.4759C48.5557 34.3566 48.1745 33.5099 47.5041 32.9374C46.8337 32.3544 45.99 32.0591 45.0032 32.0591C43.9291 32.0591 43.0868 32.3724 42.4903 32.9781C41.8937 33.5928 41.5261 34.4229 41.3664 35.4729L48.631 35.4759Z" fill="#FFF7D9"/>
</svg>
