<svg width="70" height="70" viewBox="0 0 70 70" fill="none" xmlns="http://www.w3.org/2000/svg">
<path d="M35 70C54.33 70 70 54.33 70 35C70 15.67 54.33 0 35 0C15.67 0 0 15.67 0 35C0 54.33 15.67 70 35 70Z" fill="#555FFF"/>
<path fill-rule="evenodd" clip-rule="evenodd" d="M53.0091 39.3338V52.6985H45.2563V40.2226C45.2563 37.086 44.1384 34.9542 41.3332 34.9542C39.1878 34.9542 37.9223 36.3975 37.3574 37.7865C37.154 38.2867 37.0922 38.9872 37.0922 39.6787V52.6969H29.347C29.347 52.6969 29.451 31.5749 29.347 29.3874H37.0938V32.6912C37.0833 32.7184 37.0607 32.7409 37.0501 32.7711H37.0938V32.6912C38.1288 31.1033 39.9622 28.8404 44.0797 28.8404C49.19 28.8405 53.0091 32.1715 53.0091 39.3338ZM21.2371 18.1484C18.5871 18.1484 16.8516 19.887 16.8516 22.18C16.8516 24.4113 18.5359 26.2086 21.1377 26.2086H21.1844C23.8932 26.2086 25.5715 24.4113 25.5715 22.18C25.5188 19.887 23.8933 18.1484 21.2371 18.1484ZM17.3141 52.6984H25.0624V29.3859H17.3141V52.6984Z" fill="#FFF7D9"/>
</svg>
