<svg xmlns="http://www.w3.org/2000/svg" width="70" height="70" viewBox="0 0 70 70" style="width: 100%; height: 100%;"><desc>Made with illustrio</desc>
  
<g class="base"><g fill="none" fill-rule="evenodd" stroke="none" class="main-fill">
    
    <path fill="none" d="M25.1907833,2.47111667 L18.1977833,2.47111667 L18.1977833,0.738266667 L25.1907833,0.738266667 L25.1907833,2.47111667 L25.1907833,2.47111667 Z M13.5501333,9.59198333 C14.0022167,10.2939667 14.2207333,11.1423667 14.2207333,12.1314083 C14.2207333,13.1634417 13.9708333,14.0873833 13.4548167,14.9044583 C13.1271,15.4471917 12.71795,15.8946667 12.2275417,16.268875 C11.6708667,16.6954083 11.0165417,16.9801333 10.2657333,17.1382167 C9.50915,17.2997417 8.69790833,17.3787833 7.81579167,17.3787833 L0,17.3787833 L0,0.0142333333 L8.379525,0.0142333333 C10.49825,0.04795 11.9893083,0.661558333 12.8737583,1.86445 C13.4048833,2.60015 13.6721667,3.486875 13.6721667,4.5143 C13.6721667,5.57538333 13.4037167,6.42611667 12.8702583,7.07466667 C12.5715917,7.4326 12.12645,7.76731667 11.5476667,8.05904167 C12.4321167,8.380925 13.0992167,8.8865 13.5501333,9.59198333 L13.5501333,9.59198333 Z M4.003825,6.85615 L7.67176667,6.85615 C8.42951667,6.85615 9.04085,6.71434167 9.50920833,6.42845 C9.98106667,6.143725 10.213525,5.628875 10.213525,4.90245 C10.213525,4.09004167 9.90091667,3.55664167 9.277975,3.29863333 C8.74451667,3.122 8.06230833,3.02668333 7.23135,3.02668333 L4.003825,3.02668333 L4.003825,6.85615 L4.003825,6.85615 Z M10.5679583,11.8838417 C10.5679583,10.9807833 10.2006917,10.3578417 9.46505,10.0289583 C9.053625,9.83605 8.47134167,9.73606667 7.72636667,9.73145833 L4.003825,9.73145833 L4.003825,14.3570583 L7.66943333,14.3570583 C8.42140833,14.3570583 9.00596667,14.2524667 9.42666667,14.0548917 C10.18675,13.673625 10.5679583,12.9472583 10.5679583,11.8838417 L10.5679583,11.8838417 Z M27.7813667,9.05969167 C27.86735,9.62453333 27.8999,10.457825 27.8917917,11.52935 L18.844,11.52935 C18.8834917,12.7822333 19.3181917,13.6515167 20.136375,14.14665 C20.6268417,14.4650917 21.2265083,14.6255083 21.9296583,14.6255083 C22.6676333,14.6255083 23.2661917,14.4349333 23.7322167,14.0571667 C23.9960583,13.8444833 24.21335,13.5678667 24.4085917,13.1924917 L27.7255417,13.1924917 C27.6278917,13.9304667 27.2374083,14.684775 26.513375,15.4471917 C25.3988,16.6500833 23.841475,17.25325 21.84245,17.25325 C20.1851417,17.25325 18.719575,16.7500083 17.45975,15.7260833 C16.2022583,14.7114917 15.5572083,13.0506833 15.5572083,10.758825 C15.5572083,8.59710833 16.1267167,6.93863333 17.27145,5.79273333 C18.415075,4.63983333 19.8910833,4.06915833 21.71575,4.06915833 C22.801275,4.06915833 23.7774833,4.2644 24.6456583,4.650275 C25.5173333,5.04075833 26.2285917,5.654425 26.7829333,6.49005 C27.2955667,7.235025 27.6267833,8.090425 27.7813667,9.05969167 L27.7813667,9.05969167 Z M24.515575,9.38163333 C24.457475,8.518125 24.1634167,7.86496667 23.6462333,7.423325 C23.12905,6.973575 22.478225,6.74578333 21.716975,6.74578333 C20.88835,6.74578333 20.2386333,6.98751667 19.7784417,7.45470833 C19.3181917,7.9289 19.0346333,8.56928333 18.9114333,9.3793 L24.515575,9.38163333 L24.515575,9.38163333 L24.515575,9.38163333 Z" transform="translate(21 26.308)" stroke="none" class="main-fill"></path>
  </g></g><style>
          .main-fill {fill: #555fff;}
          .main-stroke {stroke: #555fff;}
          .secondary-fill {fill: #fff7d9;}
          .secondary-stroke {stroke: #fff7d9;}

          .main-fill--darken {fill: #0817ff;}
          .main-stroke--darken {stroke: #0817ff;}
          .secondary-fill--darken {fill: #ffe78c;}
          .secondary-stroke--darken {stroke: #ffe78c;}

          .main-fill--darkener {fill: #000cd4;}
          .main-stroke--darkener {stroke: #000cd4;}
          .secondary-fill--darkener {fill: #ffdc59;}
          .secondary-stroke--darkener {stroke: #ffdc59;}
        </style></svg>